<?xml version="1.0" standalone="no"?>
<!DOCTYPE svg PUBLIC "-//W3C//DTD SVG 20010904//EN"
 "http://www.w3.org/TR/2001/REC-SVG-20010904/DTD/svg10.dtd">
<svg version="1.0" xmlns="http://www.w3.org/2000/svg"
 width="536.000000pt" height="537.000000pt" viewBox="0 0 536.000000 537.000000"
 preserveAspectRatio="xMidYMid meet">

<g transform="translate(0.000000,537.000000) scale(0.100000,-0.100000)"
fill="#000000" stroke="none">
<path d="M0 2685 l0 -2685 2680 0 2680 0 0 2685 0 2685 -2680 0 -2680 0 0
-2685z m3085 2571 c429 -64 813 -227 1184 -503 110 -82 375 -351 462 -468 131
-177 190 -272 268 -435 186 -390 262 -754 248 -1195 -7 -204 -21 -315 -62
-490 -153 -652 -557 -1216 -1131 -1576 -259 -164 -552 -276 -884 -341 -163
-32 -169 -33 -455 -32 -275 0 -298 1 -435 27 -555 106 -992 336 -1371 723
-146 149 -158 163 -258 303 -214 299 -353 618 -425 977 -35 176 -46 288 -46
497 0 204 11 320 46 497 214 1076 1098 1894 2184 2024 154 19 527 14 675 -8z"/>
<path d="M2500 5180 c-838 -76 -1585 -583 -1965 -1335 -305 -603 -347 -1292
-118 -1930 119 -332 311 -633 573 -896 378 -380 863 -622 1394 -696 167 -23
499 -22 664 1 959 133 1752 823 2016 1752 103 362 121 708 56 1094 -133 789
-679 1484 -1422 1811 -368 162 -804 234 -1198 199z m421 -495 c554 -97 1002
-523 1113 -1059 27 -129 17 -183 -42 -240 -59 -58 -150 -72 -228 -37 -62 28
-88 71 -119 196 -57 230 -169 408 -342 546 -472 375 -1148 246 -1455 -277
-174 -298 -169 -679 14 -988 60 -103 228 -267 342 -333 77 -45 210 -98 300
-118 26 -5 28 -4 23 17 -3 13 -20 60 -37 106 -18 46 -30 86 -27 89 3 3 103
-28 221 -68 l215 -74 87 -233 c54 -144 84 -236 78 -242 -18 -18 -408 -260
-419 -260 -14 0 -406 133 -423 144 -9 5 17 27 83 68 53 33 94 62 92 64 -2 3
-37 14 -78 25 -501 136 -896 582 -980 1104 -15 99 -16 346 0 440 68 403 325
769 686 973 134 76 319 140 462 161 98 14 343 12 434 -4z m154 -674 c51 -29
87 -91 87 -150 0 -52 -22 -99 -140 -294 -19 -31 -33 -59 -31 -60 2 -2 56 -20
119 -41 369 -122 640 -355 813 -702 97 -193 140 -377 140 -599 1 -395 -150
-744 -434 -1009 -259 -240 -579 -367 -929 -368 -438 -1 -842 200 -1106 551
-129 172 -239 439 -250 606 -5 76 -4 82 24 126 54 84 162 112 258 67 60 -28
98 -87 114 -174 14 -82 49 -177 100 -272 129 -239 348 -409 619 -479 92 -24
124 -28 241 -27 110 1 152 6 230 26 352 94 613 354 711 708 34 122 34 347 1
470 -49 178 -122 308 -251 442 -131 138 -292 229 -481 274 -52 12 -104 25
-115 28 -17 6 -33 -16 -118 -163 -103 -178 -135 -216 -193 -227 -156 -29 -266
115 -194 256 20 41 194 344 274 480 18 30 91 155 161 278 82 142 140 231 158
244 57 40 132 44 192 9z"/>
</g>
</svg>
